<mxfile host="app.diagrams.net" modified="2023-11-19T06:41:45.511Z" agent="Mozilla/5.0 (Macintosh; Intel Mac OS X 10_15_7) AppleWebKit/537.36 (KHTML, like Gecko) Chrome/119.0.0.0 Safari/537.36" etag="WdnoIzJfjwk2lvepSFAw" version="22.1.3" type="device" pages="3">
  <diagram id="xpdQGqbX5DPsBxLPgRGB" name="第 1 页">
    <mxGraphModel dx="976" dy="751" grid="1" gridSize="10" guides="1" tooltips="1" connect="1" arrows="1" fold="1" page="1" pageScale="1" pageWidth="827" pageHeight="1169" math="0" shadow="0">
      <root>
        <mxCell id="0" />
        <mxCell id="1" parent="0" />
        <mxCell id="WpiT3TykPm5BzeMI7q77-1" value="&lt;span style=&quot;font-family: monospace; font-size: medium; text-align: start; background-color: rgb(255, 255, 255);&quot;&gt;ar[0]&lt;/span&gt;" style="rounded=0;whiteSpace=wrap;html=1;fillColor=#ffe6cc;strokeColor=#d79b00;" parent="1" vertex="1">
          <mxGeometry x="10" y="120" width="120" height="60" as="geometry" />
        </mxCell>
        <mxCell id="WpiT3TykPm5BzeMI7q77-2" value="&lt;span style=&quot;font-family: monospace; font-size: medium; text-align: start; background-color: rgb(255, 255, 255);&quot;&gt;ar[1]&lt;/span&gt;" style="rounded=0;whiteSpace=wrap;html=1;fillColor=#ffe6cc;strokeColor=#d79b00;" parent="1" vertex="1">
          <mxGeometry x="130" y="120" width="120" height="60" as="geometry" />
        </mxCell>
        <mxCell id="WpiT3TykPm5BzeMI7q77-3" value="&lt;span style=&quot;font-family: monospace; font-size: medium; text-align: start; background-color: rgb(255, 255, 255);&quot;&gt;ar[2]&lt;/span&gt;" style="rounded=0;whiteSpace=wrap;html=1;fillColor=#ffe6cc;strokeColor=#d79b00;" parent="1" vertex="1">
          <mxGeometry x="250" y="120" width="120" height="60" as="geometry" />
        </mxCell>
        <mxCell id="WpiT3TykPm5BzeMI7q77-4" value="&lt;span style=&quot;font-family: monospace; font-size: medium; text-align: start; background-color: rgb(255, 255, 255);&quot;&gt;ar[8]&lt;/span&gt;" style="rounded=0;whiteSpace=wrap;html=1;fillColor=#ffe6cc;strokeColor=#d79b00;" parent="1" vertex="1">
          <mxGeometry x="570" y="120" width="120" height="60" as="geometry" />
        </mxCell>
        <mxCell id="WpiT3TykPm5BzeMI7q77-5" value="&lt;span style=&quot;font-family: monospace; font-size: medium; text-align: start; background-color: rgb(255, 255, 255);&quot;&gt;ar[9]&lt;/span&gt;" style="rounded=0;whiteSpace=wrap;html=1;fillColor=#ffe6cc;strokeColor=#d79b00;" parent="1" vertex="1">
          <mxGeometry x="690" y="120" width="120" height="60" as="geometry" />
        </mxCell>
        <mxCell id="WpiT3TykPm5BzeMI7q77-9" value="................................" style="text;html=1;strokeColor=none;fillColor=none;align=center;verticalAlign=middle;whiteSpace=wrap;rounded=0;" parent="1" vertex="1">
          <mxGeometry x="440" y="135" width="60" height="30" as="geometry" />
        </mxCell>
        <mxCell id="WpiT3TykPm5BzeMI7q77-10" value="&lt;pre style=&quot;margin-left: 3ex; text-align: start; background-color: rgb(255, 255, 255);&quot;&gt;int ar[10];&lt;/pre&gt;" style="text;html=1;strokeColor=none;fillColor=none;align=center;verticalAlign=middle;whiteSpace=wrap;rounded=0;" parent="1" vertex="1">
          <mxGeometry x="30" y="70" width="60" height="30" as="geometry" />
        </mxCell>
        <mxCell id="WpiT3TykPm5BzeMI7q77-14" value="&lt;pre style=&quot;margin-left: 3ex; text-align: start; background-color: rgb(255, 255, 255);&quot;&gt;int ar[10][10];&lt;/pre&gt;" style="text;html=1;strokeColor=none;fillColor=none;align=center;verticalAlign=middle;whiteSpace=wrap;rounded=0;" parent="1" vertex="1">
          <mxGeometry x="40" y="230" width="60" height="30" as="geometry" />
        </mxCell>
        <mxCell id="WpiT3TykPm5BzeMI7q77-17" value="&lt;span style=&quot;font-family: monospace; font-size: medium; text-align: start; background-color: rgb(255, 255, 255);&quot;&gt;ar[0][0]&lt;/span&gt;" style="rounded=0;whiteSpace=wrap;html=1;fillColor=#ffe6cc;strokeColor=#d79b00;" parent="1" vertex="1">
          <mxGeometry x="10" y="270" width="120" height="60" as="geometry" />
        </mxCell>
        <mxCell id="WpiT3TykPm5BzeMI7q77-18" value="&lt;span style=&quot;font-family: monospace; font-size: medium; text-align: start; background-color: rgb(255, 255, 255);&quot;&gt;ar[0][1]&lt;/span&gt;" style="rounded=0;whiteSpace=wrap;html=1;fillColor=#ffe6cc;strokeColor=#d79b00;" parent="1" vertex="1">
          <mxGeometry x="130" y="270" width="120" height="60" as="geometry" />
        </mxCell>
        <mxCell id="WpiT3TykPm5BzeMI7q77-19" value="&lt;span style=&quot;font-family: monospace; font-size: medium; text-align: start; background-color: rgb(255, 255, 255);&quot;&gt;ar[0][2]&lt;/span&gt;" style="rounded=0;whiteSpace=wrap;html=1;fillColor=#ffe6cc;strokeColor=#d79b00;" parent="1" vertex="1">
          <mxGeometry x="250" y="270" width="120" height="60" as="geometry" />
        </mxCell>
        <mxCell id="WpiT3TykPm5BzeMI7q77-20" value="&lt;span style=&quot;font-family: monospace; font-size: medium; text-align: start; background-color: rgb(255, 255, 255);&quot;&gt;ar[0][8]&lt;/span&gt;" style="rounded=0;whiteSpace=wrap;html=1;fillColor=#ffe6cc;strokeColor=#d79b00;" parent="1" vertex="1">
          <mxGeometry x="570" y="270" width="120" height="60" as="geometry" />
        </mxCell>
        <mxCell id="WpiT3TykPm5BzeMI7q77-21" value="&lt;span style=&quot;font-family: monospace; font-size: medium; text-align: start; background-color: rgb(255, 255, 255);&quot;&gt;ar[0][9]&lt;/span&gt;" style="rounded=0;whiteSpace=wrap;html=1;fillColor=#ffe6cc;strokeColor=#d79b00;" parent="1" vertex="1">
          <mxGeometry x="690" y="270" width="120" height="60" as="geometry" />
        </mxCell>
        <mxCell id="WpiT3TykPm5BzeMI7q77-22" value="................................" style="text;html=1;strokeColor=none;fillColor=none;align=center;verticalAlign=middle;whiteSpace=wrap;rounded=0;" parent="1" vertex="1">
          <mxGeometry x="440" y="285" width="60" height="30" as="geometry" />
        </mxCell>
        <mxCell id="WpiT3TykPm5BzeMI7q77-23" value="&lt;span style=&quot;font-family: monospace; font-size: medium; text-align: start; background-color: rgb(255, 255, 255);&quot;&gt;ar[1][0]&lt;/span&gt;" style="rounded=0;whiteSpace=wrap;html=1;fillColor=#ffe6cc;strokeColor=#d79b00;" parent="1" vertex="1">
          <mxGeometry x="10" y="330" width="120" height="60" as="geometry" />
        </mxCell>
        <mxCell id="WpiT3TykPm5BzeMI7q77-24" value="&lt;span style=&quot;font-family: monospace; font-size: medium; text-align: start; background-color: rgb(255, 255, 255);&quot;&gt;ar[1][1]&lt;/span&gt;" style="rounded=0;whiteSpace=wrap;html=1;fillColor=#ffe6cc;strokeColor=#d79b00;" parent="1" vertex="1">
          <mxGeometry x="130" y="330" width="120" height="60" as="geometry" />
        </mxCell>
        <mxCell id="WpiT3TykPm5BzeMI7q77-25" value="&lt;span style=&quot;font-family: monospace; font-size: medium; text-align: start; background-color: rgb(255, 255, 255);&quot;&gt;ar[1][2]&lt;/span&gt;" style="rounded=0;whiteSpace=wrap;html=1;fillColor=#ffe6cc;strokeColor=#d79b00;" parent="1" vertex="1">
          <mxGeometry x="250" y="330" width="120" height="60" as="geometry" />
        </mxCell>
        <mxCell id="WpiT3TykPm5BzeMI7q77-26" value="&lt;span style=&quot;font-family: monospace; font-size: medium; text-align: start; background-color: rgb(255, 255, 255);&quot;&gt;ar[1][8]&lt;/span&gt;" style="rounded=0;whiteSpace=wrap;html=1;fillColor=#ffe6cc;strokeColor=#d79b00;" parent="1" vertex="1">
          <mxGeometry x="570" y="330" width="120" height="60" as="geometry" />
        </mxCell>
        <mxCell id="WpiT3TykPm5BzeMI7q77-27" value="&lt;span style=&quot;font-family: monospace; font-size: medium; text-align: start; background-color: rgb(255, 255, 255);&quot;&gt;ar[1][9]&lt;/span&gt;" style="rounded=0;whiteSpace=wrap;html=1;fillColor=#ffe6cc;strokeColor=#d79b00;" parent="1" vertex="1">
          <mxGeometry x="690" y="330" width="120" height="60" as="geometry" />
        </mxCell>
        <mxCell id="WpiT3TykPm5BzeMI7q77-28" value="................................" style="text;html=1;strokeColor=none;fillColor=none;align=center;verticalAlign=middle;whiteSpace=wrap;rounded=0;" parent="1" vertex="1">
          <mxGeometry x="440" y="345" width="60" height="30" as="geometry" />
        </mxCell>
        <mxCell id="WpiT3TykPm5BzeMI7q77-29" value="&lt;span style=&quot;font-family: monospace; font-size: medium; text-align: start; background-color: rgb(255, 255, 255);&quot;&gt;ar[9][0]&lt;/span&gt;" style="rounded=0;whiteSpace=wrap;html=1;fillColor=#ffe6cc;strokeColor=#d79b00;" parent="1" vertex="1">
          <mxGeometry x="10" y="470" width="120" height="60" as="geometry" />
        </mxCell>
        <mxCell id="WpiT3TykPm5BzeMI7q77-30" value="&lt;span style=&quot;font-family: monospace; font-size: medium; text-align: start; background-color: rgb(255, 255, 255);&quot;&gt;ar[9][1]&lt;/span&gt;" style="rounded=0;whiteSpace=wrap;html=1;fillColor=#ffe6cc;strokeColor=#d79b00;" parent="1" vertex="1">
          <mxGeometry x="130" y="470" width="120" height="60" as="geometry" />
        </mxCell>
        <mxCell id="WpiT3TykPm5BzeMI7q77-31" value="&lt;span style=&quot;font-family: monospace; font-size: medium; text-align: start; background-color: rgb(255, 255, 255);&quot;&gt;ar[9][2]&lt;/span&gt;" style="rounded=0;whiteSpace=wrap;html=1;fillColor=#ffe6cc;strokeColor=#d79b00;" parent="1" vertex="1">
          <mxGeometry x="250" y="470" width="120" height="60" as="geometry" />
        </mxCell>
        <mxCell id="WpiT3TykPm5BzeMI7q77-32" value="&lt;span style=&quot;font-family: monospace; font-size: medium; text-align: start; background-color: rgb(255, 255, 255);&quot;&gt;ar[9][8]&lt;/span&gt;" style="rounded=0;whiteSpace=wrap;html=1;fillColor=#ffe6cc;strokeColor=#d79b00;" parent="1" vertex="1">
          <mxGeometry x="570" y="470" width="120" height="60" as="geometry" />
        </mxCell>
        <mxCell id="WpiT3TykPm5BzeMI7q77-33" value="&lt;span style=&quot;font-family: monospace; font-size: medium; text-align: start; background-color: rgb(255, 255, 255);&quot;&gt;ar[9][9]&lt;/span&gt;" style="rounded=0;whiteSpace=wrap;html=1;fillColor=#ffe6cc;strokeColor=#d79b00;" parent="1" vertex="1">
          <mxGeometry x="690" y="470" width="120" height="60" as="geometry" />
        </mxCell>
        <mxCell id="WpiT3TykPm5BzeMI7q77-34" value="................................" style="text;html=1;strokeColor=none;fillColor=none;align=center;verticalAlign=middle;whiteSpace=wrap;rounded=0;" parent="1" vertex="1">
          <mxGeometry x="440" y="485" width="60" height="30" as="geometry" />
        </mxCell>
        <mxCell id="WpiT3TykPm5BzeMI7q77-35" value="" style="endArrow=none;dashed=1;html=1;rounded=0;" parent="1" edge="1">
          <mxGeometry width="50" height="50" relative="1" as="geometry">
            <mxPoint x="160" y="460" as="sourcePoint" />
            <mxPoint x="160" y="410" as="targetPoint" />
          </mxGeometry>
        </mxCell>
        <mxCell id="WpiT3TykPm5BzeMI7q77-39" value="" style="endArrow=none;dashed=1;html=1;rounded=0;" parent="1" edge="1">
          <mxGeometry width="50" height="50" relative="1" as="geometry">
            <mxPoint x="690" y="460" as="sourcePoint" />
            <mxPoint x="690" y="410" as="targetPoint" />
          </mxGeometry>
        </mxCell>
        <mxCell id="WpiT3TykPm5BzeMI7q77-40" value="&lt;pre style=&quot;color: rgb(0, 0, 0); font-size: 12px; font-style: normal; font-variant-ligatures: normal; font-variant-caps: normal; font-weight: 400; letter-spacing: normal; orphans: 2; text-indent: 0px; text-transform: none; widows: 2; word-spacing: 0px; -webkit-text-stroke-width: 0px; text-decoration-thickness: initial; text-decoration-style: initial; text-decoration-color: initial; margin-left: 3ex; text-align: start; background-color: rgb(255, 255, 255);&quot;&gt;int ar[4][3][2];&lt;/pre&gt;" style="text;whiteSpace=wrap;html=1;" parent="1" vertex="1">
          <mxGeometry x="10" y="570" width="180" height="60" as="geometry" />
        </mxCell>
        <mxCell id="WpiT3TykPm5BzeMI7q77-41" value="" style="shape=image;verticalLabelPosition=bottom;labelBackgroundColor=default;verticalAlign=top;aspect=fixed;imageAspect=0;image=https://www.w3resource.com/w3r_images/python-data-type-list-excercise-13.svg;" parent="1" vertex="1">
          <mxGeometry x="80" y="670" width="302" height="437" as="geometry" />
        </mxCell>
      </root>
    </mxGraphModel>
  </diagram>
  <diagram id="76iQdTziliNANpQyD-fI" name="第 2 页">
    <mxGraphModel dx="968" dy="749" grid="1" gridSize="10" guides="1" tooltips="1" connect="1" arrows="1" fold="1" page="1" pageScale="1" pageWidth="1169" pageHeight="827" math="0" shadow="0">
      <root>
        <mxCell id="0" />
        <mxCell id="1" parent="0" />
        <mxCell id="6BjBFGwhUGmcIItVjwFH-1" value="d" style="rounded=0;whiteSpace=wrap;html=1;" vertex="1" parent="1">
          <mxGeometry y="120" width="40" height="50" as="geometry" />
        </mxCell>
        <mxCell id="6BjBFGwhUGmcIItVjwFH-5" value="cp" style="rounded=0;whiteSpace=wrap;html=1;" vertex="1" parent="1">
          <mxGeometry x="640" y="120" width="320" height="50" as="geometry" />
        </mxCell>
        <mxCell id="6BjBFGwhUGmcIItVjwFH-9" value="e" style="rounded=0;whiteSpace=wrap;html=1;" vertex="1" parent="1">
          <mxGeometry x="40" y="120" width="40" height="50" as="geometry" />
        </mxCell>
        <mxCell id="6BjBFGwhUGmcIItVjwFH-10" value="f" style="rounded=0;whiteSpace=wrap;html=1;" vertex="1" parent="1">
          <mxGeometry x="80" y="120" width="40" height="50" as="geometry" />
        </mxCell>
        <mxCell id="6BjBFGwhUGmcIItVjwFH-11" value="g" style="rounded=0;whiteSpace=wrap;html=1;" vertex="1" parent="1">
          <mxGeometry x="120" y="120" width="40" height="50" as="geometry" />
        </mxCell>
        <mxCell id="6BjBFGwhUGmcIItVjwFH-12" value="x" style="rounded=0;whiteSpace=wrap;html=1;" vertex="1" parent="1">
          <mxGeometry x="160" y="120" width="160" height="50" as="geometry" />
        </mxCell>
        <mxCell id="6BjBFGwhUGmcIItVjwFH-13" value="p" style="rounded=0;whiteSpace=wrap;html=1;" vertex="1" parent="1">
          <mxGeometry x="320" y="120" width="320" height="50" as="geometry" />
        </mxCell>
        <mxCell id="6BjBFGwhUGmcIItVjwFH-14" value="s_cmd" style="rounded=0;whiteSpace=wrap;html=1;" vertex="1" parent="1">
          <mxGeometry x="10" y="310" width="840" height="270" as="geometry" />
        </mxCell>
        <mxCell id="6BjBFGwhUGmcIItVjwFH-15" value="p_cmd" style="rounded=0;whiteSpace=wrap;html=1;" vertex="1" parent="1">
          <mxGeometry x="10" y="580" width="320" height="50" as="geometry" />
        </mxCell>
      </root>
    </mxGraphModel>
  </diagram>
  <diagram id="IbzLJDhYpvSKcg7j7otk" name="第 3 页">
    <mxGraphModel dx="976" dy="1578" grid="1" gridSize="10" guides="1" tooltips="1" connect="1" arrows="1" fold="1" page="1" pageScale="1" pageWidth="1169" pageHeight="827" math="0" shadow="0">
      <root>
        <mxCell id="0" />
        <mxCell id="1" parent="0" />
        <mxCell id="PjXembYtn4CsjMSfzCFD-1" value="x[0]" style="rounded=0;whiteSpace=wrap;html=1;" vertex="1" parent="1">
          <mxGeometry x="140" y="-700" width="120" height="60" as="geometry" />
        </mxCell>
        <mxCell id="PjXembYtn4CsjMSfzCFD-2" value="x[1]" style="rounded=0;whiteSpace=wrap;html=1;" vertex="1" parent="1">
          <mxGeometry x="260" y="-700" width="120" height="60" as="geometry" />
        </mxCell>
        <mxCell id="PjXembYtn4CsjMSfzCFD-5" style="edgeStyle=orthogonalEdgeStyle;rounded=0;orthogonalLoop=1;jettySize=auto;html=1;exitX=0.5;exitY=0;exitDx=0;exitDy=0;entryX=0.5;entryY=1;entryDx=0;entryDy=0;" edge="1" parent="1" source="PjXembYtn4CsjMSfzCFD-3" target="PjXembYtn4CsjMSfzCFD-1">
          <mxGeometry relative="1" as="geometry" />
        </mxCell>
        <mxCell id="PjXembYtn4CsjMSfzCFD-3" value="p" style="rounded=0;whiteSpace=wrap;html=1;" vertex="1" parent="1">
          <mxGeometry x="140" y="-570" width="240" height="60" as="geometry" />
        </mxCell>
        <mxCell id="PjXembYtn4CsjMSfzCFD-10" value="x[0]" style="rounded=0;whiteSpace=wrap;html=1;" vertex="1" parent="1">
          <mxGeometry x="140" y="-413" width="120" height="60" as="geometry" />
        </mxCell>
        <mxCell id="PjXembYtn4CsjMSfzCFD-11" value="x[1]" style="rounded=0;whiteSpace=wrap;html=1;" vertex="1" parent="1">
          <mxGeometry x="260" y="-413" width="120" height="60" as="geometry" />
        </mxCell>
        <mxCell id="PjXembYtn4CsjMSfzCFD-12" style="edgeStyle=orthogonalEdgeStyle;rounded=0;orthogonalLoop=1;jettySize=auto;html=1;exitX=0.5;exitY=0;exitDx=0;exitDy=0;" edge="1" parent="1" source="PjXembYtn4CsjMSfzCFD-13">
          <mxGeometry relative="1" as="geometry">
            <mxPoint x="330" y="-350" as="targetPoint" />
          </mxGeometry>
        </mxCell>
        <mxCell id="PjXembYtn4CsjMSfzCFD-13" value="p+1" style="rounded=0;whiteSpace=wrap;html=1;" vertex="1" parent="1">
          <mxGeometry x="140" y="-283" width="240" height="60" as="geometry" />
        </mxCell>
      </root>
    </mxGraphModel>
  </diagram>
</mxfile>
